<!-- Concept: Blob Gradient — soft organic blob with internal layered sound waves, evoking warm, ambient multi-room audio in the spirit of Apple Music. -->
<svg xmlns="http://www.w3.org/2000/svg" viewBox="0 0 1024 1024" role="img" aria-label="SyncCast blob gradient icon">
  <defs>
    <linearGradient id="bg05" x1="0" y1="0" x2="1" y2="1">
      <stop offset="0" stop-color="#BF5AF2"/>
      <stop offset="0.55" stop-color="#5E5CE6"/>
      <stop offset="1" stop-color="#0A84FF"/>
    </linearGradient>
    <radialGradient id="blobShade" cx="0.35" cy="0.30" r="0.85">
      <stop offset="0" stop-color="#FFFFFF" stop-opacity="0.95"/>
      <stop offset="0.55" stop-color="#FFFFFF" stop-opacity="0.55"/>
      <stop offset="1" stop-color="#FFFFFF" stop-opacity="0.20"/>
    </radialGradient>
  </defs>
  <rect width="1024" height="1024" rx="232" ry="232" fill="url(#bg05)"/>
  <path d="M 512 168
           C 720 168 856 296 856 488
           C 856 668 760 800 600 848
           C 444 894 256 824 196 660
           C 140 506 200 348 332 244
           C 388 200 444 168 512 168 Z"
        fill="url(#blobShade)"/>
  <g stroke="#5E5CE6" stroke-linecap="round" fill="none">
    <path d="M 320 512 Q 380 432 440 512 T 560 512 T 680 512 T 800 512" stroke-width="22" stroke-opacity="0.95"/>
    <path d="M 280 600 Q 360 512 440 600 T 600 600 T 760 600" stroke-width="18" stroke-opacity="0.65"/>
    <path d="M 360 424 Q 420 360 480 424 T 600 424 T 720 424" stroke-width="14" stroke-opacity="0.50"/>
  </g>
  <circle cx="512" cy="512" r="38" fill="#0A84FF"/>
</svg>
